<mxfile host="app.diagrams.net" modified="2023-11-08T23:58:24.392Z" agent="Mozilla/5.0 (Windows NT 10.0; Win64; x64) AppleWebKit/537.36 (KHTML, like Gecko) Chrome/119.0.0.0 Safari/537.36" etag="VL6sicaOq3qMasdDgrRp" version="21.5.0" type="github">
  <diagram name="第 1 页" id="IlnAklZg7ieMbXR2ltoT">
    <mxGraphModel dx="1221" dy="662" grid="1" gridSize="10" guides="1" tooltips="1" connect="1" arrows="1" fold="1" page="1" pageScale="1" pageWidth="827" pageHeight="1169" math="0" shadow="0">
      <root>
        <mxCell id="0" />
        <mxCell id="1" parent="0" />
        <mxCell id="CnHmLR6LnjuZlrZBCloC-1" value="&lt;font style=&quot;font-size: 23px;&quot;&gt;当前帧&lt;/font&gt;" style="rounded=0;whiteSpace=wrap;html=1;" vertex="1" parent="1">
          <mxGeometry x="240" y="120" width="120" height="60" as="geometry" />
        </mxCell>
      </root>
    </mxGraphModel>
  </diagram>
</mxfile>
